<svg width="64" height="64" viewBox="0 0 64 64" fill="none" xmlns="http://www.w3.org/2000/svg">
<path d="M49.0148 17.8163C50.8995 15.9317 53.9551 15.9317 55.8398 17.8163C57.7245 19.701 57.7245 22.7566 55.8398 24.6413L34.3674 46.1137C32.4827 47.9984 29.4271 47.9984 27.5424 46.1137C25.6577 44.2291 25.6577 41.1734 27.5424 39.2888L49.0148 17.8163Z" fill="white"/>
<path d="M19.7144 27.7388C21.5991 25.8541 24.6547 25.8541 26.5394 27.7388C28.4241 29.6235 28.4241 32.6791 26.5394 34.5638L14.9895 46.1137C13.1048 47.9984 10.0491 47.9984 8.16448 46.1137C6.27981 44.2291 6.27981 41.1734 8.16448 39.2888L19.7144 27.7388Z" fill="white"/>
<path d="M36.4619 24.6413C34.5772 26.526 31.5216 26.526 29.6369 24.6413C27.7522 22.7566 27.7522 19.701 29.6369 17.8163C31.5216 15.9317 34.5772 15.9317 36.4619 17.8163C38.3465 19.701 38.3465 22.7566 36.4619 24.6413Z" fill="white"/>
</svg>
